<?xml version="1.0" encoding="UTF-8" standalone="no"?>
<!DOCTYPE svg PUBLIC "-//W3C//DTD SVG 1.1//EN"
 "http://www.w3.org/Graphics/SVG/1.1/DTD/svg11.dtd">
<!-- Generated by graphviz version 12.2.1 (20241206.2353)
 -->
<!-- Title: firmware/app/app.c Pages: 1 -->
<!--zoomable 252 -->

<svg id="main" version="1.1" xmlns="http://www.w3.org/2000/svg" xmlns:xlink="http://www.w3.org/1999/xlink" xml:space="preserve" onload="init(evt)">

<style type="text/css"><![CDATA[
.node, .edge {opacity: 0.7;}
.node.selected, .edge.selected {opacity: 1;}
.edge:hover path { stroke: red; }
.edge:hover polygon { stroke: red; fill: red; }
]]></style>

<defs>
  <circle id="rim" cx="0" cy="0" r="7"/>
  <circle id="rim2" cx="0" cy="0" r="3.5"/>
  <g id="zoomPlus">
    <use xlink:href="#rim" fill="#404040"><set attributeName="fill" to="#808080" begin="zoomplus.mouseover" end="zoomplus.mouseout"/></use>
    <path d="M-4,0h8M0,-4v8" fill="none" stroke="white" stroke-width="1.5" pointer-events="none"/>
  </g>
  <g id="zoomMin">
    <use xlink:href="#rim" fill="#404040"><set attributeName="fill" to="#808080" begin="zoomminus.mouseover" end="zoomminus.mouseout"/></use>
    <path d="M-4,0h8" fill="none" stroke="white" stroke-width="1.5" pointer-events="none"/>
  </g>
  <g id="arrowUp" transform="translate(30 24)">
    <use xlink:href="#rim"/>
    <path pointer-events="none" fill="none" stroke="white" stroke-width="1.5" d="M0,-3.0v7 M-2.5,-0.5L0,-3.0L2.5,-0.5"/>
  </g>
  <g id="arrowRight" transform="rotate(90) translate(36 -43)">
    <use xlink:href="#rim"/>
    <path pointer-events="none" fill="none" stroke="white" stroke-width="1.5" d="M0,-3.0v7 M-2.5,-0.5L0,-3.0L2.5,-0.5"/>
  </g>
  <g id="arrowDown" transform="rotate(180) translate(-30 -48)">
    <use xlink:href="#rim"/>
    <path pointer-events="none" fill="none" stroke="white" stroke-width="1.5" d="M0,-3.0v7 M-2.5,-0.5L0,-3.0L2.5,-0.5"/>
  </g>
  <g id="arrowLeft" transform="rotate(270) translate(-36 17)">
    <use xlink:href="#rim"/>
    <path pointer-events="none" fill="none" stroke="white" stroke-width="1.5" d="M0,-3.0v7 M-2.5,-0.5L0,-3.0L2.5,-0.5"/>
  </g>
  <g id="resetDef">
    <use xlink:href="#rim2" fill="#404040"><set attributeName="fill" to="#808080" begin="reset.mouseover" end="reset.mouseout"/></use>
  </g>
</defs>
<script type="application/ecmascript">
var viewWidth = 907;
var viewHeight = 252;
var sectionId = 'dynsection-0';
</script>
<script type="application/ecmascript" xlink:href="svg.min.js"/>
<svg id="graph" class="graph">
<g id="viewport">
<title>firmware/app/app.c</title>
<!-- Node1 -->
<g id="Node000001" class="node">
<title>Node1</title>
<g id="a_Node000001"><a xlink:title=" ">
<polygon fill="#999999" stroke="#666666" points="420.62,-244 321.38,-244 321.38,-224 420.62,-224 420.62,-244"/>
<text text-anchor="middle" x="371" y="-230.5" font-family="Helvetica,sans-Serif" font-size="10.00">firmware/app/app.c</text>
</a>
</g>
</g>
<!-- Node2 -->
<g id="Node000002" class="node">
<title>Node2</title>
<g id="a_Node000002"><a xlink:href="app_8h.html" target="_top" xlink:title=" ">
<polygon fill="white" stroke="#666666" points="40,-188 0,-188 0,-168 40,-168 40,-188"/>
<text text-anchor="middle" x="20" y="-174.5" font-family="Helvetica,sans-Serif" font-size="10.00">app.h</text>
</a>
</g>
</g>
<!-- Node1&#45;&gt;Node2 -->
<g id="edge1_Node000001_Node000002" class="edge">
<title>Node1&#45;&gt;Node2</title>
<g id="a_edge1_Node000001_Node000002"><a xlink:title=" ">
<path fill="none" stroke="#63b8ff" d="M320.91,-228.54C259.43,-222.51 151.92,-210.15 51.44,-188.24"/>
<polygon fill="#63b8ff" stroke="#63b8ff" points="52.48,-184.89 41.96,-186.14 50.96,-191.72 52.48,-184.89"/>
</a>
</g>
</g>
<!-- Node3 -->
<g id="Node000003" class="node">
<title>Node3</title>
<g id="a_Node000003"><a xlink:href="app__config_8h.html" target="_top" xlink:title=" ">
<polygon fill="white" stroke="#666666" points="129.75,-188 58.25,-188 58.25,-168 129.75,-168 129.75,-188"/>
<text text-anchor="middle" x="94" y="-174.5" font-family="Helvetica,sans-Serif" font-size="10.00">app_config.h</text>
</a>
</g>
</g>
<!-- Node1&#45;&gt;Node3 -->
<g id="edge2_Node000001_Node000003" class="edge">
<title>Node1&#45;&gt;Node3</title>
<g id="a_edge2_Node000001_Node000003"><a xlink:title=" ">
<path fill="none" stroke="#63b8ff" d="M321.65,-223.51C277.06,-214.92 209.31,-201.82 140.85,-188.36"/>
<polygon fill="#63b8ff" stroke="#63b8ff" points="141.83,-184.98 131.34,-186.48 140.48,-191.85 141.83,-184.98"/>
</a>
</g>
</g>
<!-- Node4 -->
<g id="Node000004" class="node">
<title>Node4</title>
<g id="a_Node000004"><a xlink:href="logger_8h.html" target="_top" xlink:title=" ">
<polygon fill="white" stroke="#666666" points="198.25,-188 147.75,-188 147.75,-168 198.25,-168 198.25,-188"/>
<text text-anchor="middle" x="173" y="-174.5" font-family="Helvetica,sans-Serif" font-size="10.00">logger.h</text>
</a>
</g>
</g>
<!-- Node1&#45;&gt;Node4 -->
<g id="edge3_Node000001_Node000004" class="edge">
<title>Node1&#45;&gt;Node4</title>
<g id="a_edge3_Node000001_Node000004"><a xlink:title=" ">
<path fill="none" stroke="#63b8ff" d="M336.51,-223.59C301.02,-213.91 245.93,-198.89 209.67,-189"/>
<polygon fill="#63b8ff" stroke="#63b8ff" points="210.63,-185.63 200.06,-186.38 208.79,-192.39 210.63,-185.63"/>
</a>
</g>
</g>
<!-- Node6 -->
<g id="Node000006" class="node">
<title>Node6</title>
<g id="a_Node000006"><a xlink:href="imu__if_8h.html" target="_top" xlink:title=" ">
<polygon fill="white" stroke="#666666" points="312.25,-76 261.75,-76 261.75,-56 312.25,-56 312.25,-76"/>
<text text-anchor="middle" x="287" y="-62.5" font-family="Helvetica,sans-Serif" font-size="10.00">imu_if.h</text>
</a>
</g>
</g>
<!-- Node1&#45;&gt;Node6 -->
<g id="edge5_Node000001_Node000006" class="edge">
<title>Node1&#45;&gt;Node6</title>
<g id="a_edge5_Node000001_Node000006"><a xlink:title=" ">
<path fill="none" stroke="#63b8ff" d="M342.66,-223.56C326.13,-216.49 306.52,-205.06 296,-188 277,-157.16 279.46,-113.16 283.13,-87.59"/>
<polygon fill="#63b8ff" stroke="#63b8ff" points="286.56,-88.3 284.74,-77.86 279.65,-87.15 286.56,-88.3"/>
</a>
</g>
</g>
<!-- Node8 -->
<g id="Node000008" class="node">
<title>Node8</title>
<g id="a_Node000008"><a xlink:title=" ">
<polygon fill="#e0e0e0" stroke="#999999" points="276.25,-20 219.75,-20 219.75,0 276.25,0 276.25,-20"/>
<text text-anchor="middle" x="248" y="-6.5" font-family="Helvetica,sans-Serif" font-size="10.00">esp_err.h</text>
</a>
</g>
</g>
<!-- Node1&#45;&gt;Node8 -->
<g id="edge21_Node000001_Node000008" class="edge">
<title>Node1&#45;&gt;Node8</title>
<g id="a_edge21_Node000001_Node000008"><a xlink:title=" ">
<path fill="none" stroke="#63b8ff" d="M338.22,-223.63C319.5,-216.68 297.03,-205.35 283,-188 245.81,-142.01 244.44,-67.57 246.28,-31.67"/>
<polygon fill="#63b8ff" stroke="#63b8ff" points="249.77,-32.03 246.94,-21.82 242.78,-31.57 249.77,-32.03"/>
</a>
</g>
</g>
<!-- Node9 -->
<g id="Node000009" class="node">
<title>Node9</title>
<g id="a_Node000009"><a xlink:href="recognizer_8h.html" target="_top" xlink:title=" ">
<polygon fill="white" stroke="#666666" points="437.62,-132 368.38,-132 368.38,-112 437.62,-112 437.62,-132"/>
<text text-anchor="middle" x="403" y="-118.5" font-family="Helvetica,sans-Serif" font-size="10.00">recognizer.h</text>
</a>
</g>
</g>
<!-- Node1&#45;&gt;Node9 -->
<g id="edge8_Node000001_Node000009" class="edge">
<title>Node1&#45;&gt;Node9</title>
<g id="a_edge8_Node000001_Node000009"><a xlink:title=" ">
<path fill="none" stroke="#63b8ff" d="M373.73,-223.62C378.88,-205.92 390.13,-167.24 397.09,-143.32"/>
<polygon fill="#63b8ff" stroke="#63b8ff" points="400.42,-144.39 399.86,-133.81 393.7,-142.43 400.42,-144.39"/>
</a>
</g>
</g>
<!-- Node10 -->
<g id="Node000010" class="node">
<title>Node10</title>
<g id="a_Node000010"><a xlink:title=" ">
<polygon fill="#e0e0e0" stroke="#999999" points="525.88,-76 470.12,-76 470.12,-56 525.88,-56 525.88,-76"/>
<text text-anchor="middle" x="498" y="-62.5" font-family="Helvetica,sans-Serif" font-size="10.00">stdbool.h</text>
</a>
</g>
</g>
<!-- Node1&#45;&gt;Node10 -->
<g id="edge23_Node000001_Node000010" class="edge">
<title>Node1&#45;&gt;Node10</title>
<g id="a_edge23_Node000001_Node000010"><a xlink:title=" ">
<path fill="none" stroke="#63b8ff" d="M421.12,-224.13C470.5,-212.43 543.29,-186.55 577,-132 590.62,-109.96 563.06,-91.93 536.83,-80.5"/>
<polygon fill="#63b8ff" stroke="#63b8ff" points="538.16,-77.26 527.58,-76.72 535.52,-83.74 538.16,-77.26"/>
</a>
</g>
</g>
<!-- Node11 -->
<g id="Node000011" class="node">
<title>Node11</title>
<g id="a_Node000011"><a xlink:href="web__server_8h.html" target="_top" xlink:title=" ">
<polygon fill="white" stroke="#666666" points="568.25,-132 493.75,-132 493.75,-112 568.25,-112 568.25,-132"/>
<text text-anchor="middle" x="531" y="-118.5" font-family="Helvetica,sans-Serif" font-size="10.00">web_server.h</text>
</a>
</g>
</g>
<!-- Node1&#45;&gt;Node11 -->
<g id="edge12_Node000001_Node000011" class="edge">
<title>Node1&#45;&gt;Node11</title>
<g id="a_edge12_Node000001_Node000011"><a xlink:title=" ">
<path fill="none" stroke="#63b8ff" d="M384.64,-223.62C412.15,-204.71 474.54,-161.82 508.3,-138.61"/>
<polygon fill="#63b8ff" stroke="#63b8ff" points="509.89,-141.76 516.15,-133.21 505.92,-135.99 509.89,-141.76"/>
</a>
</g>
</g>
<!-- Node12 -->
<g id="Node000012" class="node">
<title>Node12</title>
<g id="a_Node000012"><a xlink:href="web__state_8h.html" target="_top" xlink:title=" ">
<polygon fill="white" stroke="#666666" points="374.62,-188 305.38,-188 305.38,-168 374.62,-168 374.62,-188"/>
<text text-anchor="middle" x="340" y="-174.5" font-family="Helvetica,sans-Serif" font-size="10.00">web_state.h</text>
</a>
</g>
</g>
<!-- Node1&#45;&gt;Node12 -->
<g id="edge14_Node000001_Node000012" class="edge">
<title>Node1&#45;&gt;Node12</title>
<g id="a_edge14_Node000001_Node000012"><a xlink:title=" ">
<path fill="none" stroke="#63b8ff" d="M365.6,-223.59C361.56,-216.55 355.88,-206.67 350.91,-198"/>
<polygon fill="#63b8ff" stroke="#63b8ff" points="354.11,-196.54 346.09,-189.61 348.03,-200.03 354.11,-196.54"/>
</a>
</g>
</g>
<!-- Node13 -->
<g id="Node000013" class="node">
<title>Node13</title>
<g id="a_Node000013"><a xlink:title=" ">
<polygon fill="#e0e0e0" stroke="#999999" points="717.38,-188 610.62,-188 610.62,-168 717.38,-168 717.38,-188"/>
<text text-anchor="middle" x="664" y="-174.5" font-family="Helvetica,sans-Serif" font-size="10.00">freertos/FreeRTOS.h</text>
</a>
</g>
</g>
<!-- Node1&#45;&gt;Node13 -->
<g id="edge19_Node000001_Node000013" class="edge">
<title>Node1&#45;&gt;Node13</title>
<g id="a_edge19_Node000001_Node000013"><a xlink:title=" ">
<path fill="none" stroke="#63b8ff" d="M421.04,-223.78C470.93,-214.58 547.71,-200.43 601.57,-190.51"/>
<polygon fill="#63b8ff" stroke="#63b8ff" points="602.01,-193.98 611.21,-188.73 600.74,-187.1 602.01,-193.98"/>
</a>
</g>
</g>
<!-- Node14 -->
<g id="Node000014" class="node">
<title>Node14</title>
<g id="a_Node000014"><a xlink:title=" ">
<polygon fill="#e0e0e0" stroke="#999999" points="814.5,-188 735.5,-188 735.5,-168 814.5,-168 814.5,-188"/>
<text text-anchor="middle" x="775" y="-174.5" font-family="Helvetica,sans-Serif" font-size="10.00">freertos/task.h</text>
</a>
</g>
</g>
<!-- Node1&#45;&gt;Node14 -->
<g id="edge20_Node000001_Node000014" class="edge">
<title>Node1&#45;&gt;Node14</title>
<g id="a_edge20_Node000001_Node000014"><a xlink:title=" ">
<path fill="none" stroke="#63b8ff" d="M421.09,-227.54C487.8,-220.07 609.72,-205.74 724.14,-188.21"/>
<polygon fill="#63b8ff" stroke="#63b8ff" points="724.34,-191.72 733.69,-186.74 723.27,-184.8 724.34,-191.72"/>
</a>
</g>
</g>
<!-- Node15 -->
<g id="Node000015" class="node">
<title>Node15</title>
<g id="a_Node000015"><a xlink:title=" ">
<polygon fill="#e0e0e0" stroke="#999999" points="899.12,-188 832.88,-188 832.88,-168 899.12,-168 899.12,-188"/>
<text text-anchor="middle" x="866" y="-174.5" font-family="Helvetica,sans-Serif" font-size="10.00">nvs_flash.h</text>
</a>
</g>
</g>
<!-- Node1&#45;&gt;Node15 -->
<g id="edge22_Node000001_Node000015" class="edge">
<title>Node1&#45;&gt;Node15</title>
<g id="a_edge22_Node000001_Node000015"><a xlink:title=" ">
<path fill="none" stroke="#63b8ff" d="M420.83,-229.88C502.46,-224.38 669.94,-211.42 821.26,-188.27"/>
<polygon fill="#63b8ff" stroke="#63b8ff" points="821.75,-191.74 831.1,-186.74 820.68,-184.82 821.75,-191.74"/>
</a>
</g>
</g>
<!-- Node5 -->
<g id="Node000005" class="node">
<title>Node5</title>
<g id="a_Node000005"><a xlink:title=" ">
<polygon fill="#e0e0e0" stroke="#999999" points="198,-132 140,-132 140,-112 198,-112 198,-132"/>
<text text-anchor="middle" x="169" y="-118.5" font-family="Helvetica,sans-Serif" font-size="10.00">esp_log.h</text>
</a>
</g>
</g>
<!-- Node4&#45;&gt;Node5 -->
<g id="edge4_Node000004_Node000005" class="edge">
<title>Node4&#45;&gt;Node5</title>
<g id="a_edge4_Node000004_Node000005"><a xlink:title=" ">
<path fill="none" stroke="#63b8ff" d="M172.3,-167.59C171.82,-161.01 171.15,-151.96 170.54,-143.73"/>
<polygon fill="#63b8ff" stroke="#63b8ff" points="174.03,-143.52 169.8,-133.81 167.05,-144.04 174.03,-143.52"/>
</a>
</g>
</g>
<!-- Node7 -->
<g id="Node000007" class="node">
<title>Node7</title>
<g id="a_Node000007"><a xlink:title=" ">
<polygon fill="#e0e0e0" stroke="#999999" points="364.12,-20 315.88,-20 315.88,0 364.12,0 364.12,-20"/>
<text text-anchor="middle" x="340" y="-6.5" font-family="Helvetica,sans-Serif" font-size="10.00">stdint.h</text>
</a>
</g>
</g>
<!-- Node6&#45;&gt;Node7 -->
<g id="edge6_Node000006_Node000007" class="edge">
<title>Node6&#45;&gt;Node7</title>
<g id="a_edge6_Node000006_Node000007"><a xlink:title=" ">
<path fill="none" stroke="#63b8ff" d="M296.23,-55.59C303.6,-48.08 314.13,-37.35 323.02,-28.3"/>
<polygon fill="#63b8ff" stroke="#63b8ff" points="325.31,-30.97 329.81,-21.38 320.31,-26.06 325.31,-30.97"/>
</a>
</g>
</g>
<!-- Node6&#45;&gt;Node8 -->
<g id="edge7_Node000006_Node000008" class="edge">
<title>Node6&#45;&gt;Node8</title>
<g id="a_edge7_Node000006_Node000008"><a xlink:title=" ">
<path fill="none" stroke="#63b8ff" d="M280.21,-55.59C275.01,-48.39 267.67,-38.23 261.31,-29.43"/>
<polygon fill="#63b8ff" stroke="#63b8ff" points="264.29,-27.58 255.6,-21.53 258.62,-31.68 264.29,-27.58"/>
</a>
</g>
</g>
<!-- Node9&#45;&gt;Node6 -->
<g id="edge11_Node000009_Node000006" class="edge">
<title>Node9&#45;&gt;Node6</title>
<g id="a_edge11_Node000009_Node000006"><a xlink:title=" ">
<path fill="none" stroke="#63b8ff" d="M382.79,-111.59C364.77,-103.21 338.13,-90.8 317.52,-81.21"/>
<polygon fill="#63b8ff" stroke="#63b8ff" points="319.28,-78.17 308.74,-77.12 316.32,-84.51 319.28,-78.17"/>
</a>
</g>
</g>
<!-- Node9&#45;&gt;Node7 -->
<g id="edge10_Node000009_Node000007" class="edge">
<title>Node9&#45;&gt;Node7</title>
<g id="a_edge10_Node000009_Node000007"><a xlink:title=" ">
<path fill="none" stroke="#63b8ff" d="M397.63,-111.62C387.31,-93.6 364.52,-53.81 350.9,-30.02"/>
<polygon fill="#63b8ff" stroke="#63b8ff" points="354.12,-28.61 346.11,-21.67 348.04,-32.09 354.12,-28.61"/>
</a>
</g>
</g>
<!-- Node9&#45;&gt;Node10 -->
<g id="edge9_Node000009_Node000010" class="edge">
<title>Node9&#45;&gt;Node10</title>
<g id="a_edge9_Node000009_Node000010"><a xlink:title=" ">
<path fill="none" stroke="#63b8ff" d="M419.55,-111.59C433.9,-103.44 454.93,-91.48 471.6,-82"/>
<polygon fill="#63b8ff" stroke="#63b8ff" points="473.04,-85.21 480.01,-77.23 469.58,-79.13 473.04,-85.21"/>
</a>
</g>
</g>
<!-- Node11&#45;&gt;Node10 -->
<g id="edge13_Node000011_Node000010" class="edge">
<title>Node11&#45;&gt;Node10</title>
<g id="a_edge13_Node000011_Node000010"><a xlink:title=" ">
<path fill="none" stroke="#63b8ff" d="M525.25,-111.59C520.95,-104.55 514.91,-94.67 509.61,-86"/>
<polygon fill="#63b8ff" stroke="#63b8ff" points="512.67,-84.3 504.47,-77.59 506.7,-87.95 512.67,-84.3"/>
</a>
</g>
</g>
<!-- Node12&#45;&gt;Node6 -->
<g id="edge17_Node000012_Node000006" class="edge">
<title>Node12&#45;&gt;Node6</title>
<g id="a_edge17_Node000012_Node000006"><a xlink:title=" ">
<path fill="none" stroke="#63b8ff" d="M335.48,-167.62C326.88,-149.76 307.97,-110.53 296.48,-86.67"/>
<polygon fill="#63b8ff" stroke="#63b8ff" points="299.66,-85.21 292.16,-77.72 293.35,-88.25 299.66,-85.21"/>
</a>
</g>
</g>
<!-- Node12&#45;&gt;Node7 -->
<g id="edge16_Node000012_Node000007" class="edge">
<title>Node12&#45;&gt;Node7</title>
<g id="a_edge16_Node000012_Node000007"><a xlink:title=" ">
<path fill="none" stroke="#63b8ff" d="M340,-167.6C340,-141.46 340,-67.48 340,-31.36"/>
<polygon fill="#63b8ff" stroke="#63b8ff" points="343.5,-31.81 340,-21.81 336.5,-31.81 343.5,-31.81"/>
</a>
</g>
</g>
<!-- Node12&#45;&gt;Node9 -->
<g id="edge18_Node000012_Node000009" class="edge">
<title>Node12&#45;&gt;Node9</title>
<g id="a_edge18_Node000012_Node000009"><a xlink:title=" ">
<path fill="none" stroke="#63b8ff" d="M350.97,-167.59C359.92,-159.93 372.77,-148.91 383.46,-139.75"/>
<polygon fill="#63b8ff" stroke="#63b8ff" points="385.69,-142.45 391,-133.28 381.13,-137.13 385.69,-142.45"/>
</a>
</g>
</g>
<!-- Node12&#45;&gt;Node10 -->
<g id="edge15_Node000012_Node000010" class="edge">
<title>Node12&#45;&gt;Node10</title>
<g id="a_edge15_Node000012_Node000010"><a xlink:title=" ">
<path fill="none" stroke="#63b8ff" d="M374.13,-167.57C396.38,-160.29 425.21,-148.63 447,-132 463.54,-119.38 477.71,-100.2 486.88,-85.94"/>
<polygon fill="#63b8ff" stroke="#63b8ff" points="489.83,-87.82 492.09,-77.47 483.87,-84.16 489.83,-87.82"/>
</a>
</g>
</g>
</g>
</svg>

<g id="navigator" transform="translate(0 0)" fill="#404254">
  <rect fill="#f2f5e9" fill-opacity="0.5" stroke="#606060" stroke-width=".5" x="0" y="0" width="60" height="60"/>
  <use id="zoomplus" xlink:href="#zoomPlus" x="17" y="9" onmousedown="handleZoom(evt,'in')"/>
  <use id="zoomminus" xlink:href="#zoomMin" x="42" y="9" onmousedown="handleZoom(evt,'out')"/>
  <use id="reset" xlink:href="#resetDef" x="30" y="36" onmousedown="handleReset()"/>
   <use id="arrowup" xlink:href="#arrowUp" x="0" y="0" onmousedown="handlePan(0,-1)"/>
  <use id="arrowright" xlink:href="#arrowRight" x="0" y="0" onmousedown="handlePan(1,0)"/>
  <use id="arrowdown" xlink:href="#arrowDown" x="0" y="0" onmousedown="handlePan(0,1)"/>
  <use id="arrowleft" xlink:href="#arrowLeft" x="0" y="0" onmousedown="handlePan(-1,0)"/>
</g>
<svg viewBox="0 0 15 15" width="100%" height="30px" preserveAspectRatio="xMaxYMin meet">
 <g id="arrow_out" transform="scale(0.3 0.3)">
  <a xlink:href="app_8c__incl_org.svg" target="_base">
   <rect id="button" ry="5" rx="5" y="6" x="6" height="38" width="38"
        fill="#f2f5e9" fill-opacity="0.5" stroke="#606060" stroke-width="1.0"/>
   <path id="arrow"
     d="M 11.500037,31.436501 C 11.940474,20.09759 22.043105,11.32322 32.158766,21.979434 L 37.068811,17.246167 C 37.068811,17.246167 37.088388,32 37.088388,32 L 22.160133,31.978069 C 22.160133,31.978069 26.997745,27.140456 26.997745,27.140456 C 18.528582,18.264221 13.291696,25.230495 11.500037,31.436501 z"
     style="fill:#404040;"/>
  </a>
 </g>
</svg>

<style type='text/css'>
<![CDATA[
[data-mouse-over-selected='false'] { opacity: 0.7; }
[data-mouse-over-selected='true']  { opacity: 1.0; }
]]>
</style>
<script type="application/ecmascript"><![CDATA[
document.addEventListener('DOMContentLoaded', (event) => {
  highlightEdges();
  highlightAdjacentNodes();
});
]]></script>
</svg>
