<?xml version="1.0" encoding="UTF-8" standalone="no"?>
<!DOCTYPE svg PUBLIC "-//W3C//DTD SVG 1.1//EN"
 "http://www.w3.org/Graphics/SVG/1.1/DTD/svg11.dtd">
<!-- Generated by graphviz version 12.2.1 (20241206.2353)
 -->
<!-- Title: firmware/platforms/esp32/mpu6050.c Pages: 1 -->
<svg width="758pt" height="152pt"
 viewBox="0.00 0.00 758.38 152.00" xmlns="http://www.w3.org/2000/svg" xmlns:xlink="http://www.w3.org/1999/xlink">
<g id="page0,1_graph0" class="graph" transform="scale(1 1) rotate(0) translate(4 148)">
<title>firmware/platforms/esp32/mpu6050.c</title>
<!-- Node1 -->
<g id="Node000001" class="node">
<title>Node1</title>
<g id="a_Node000001"><a xlink:title=" ">
<polygon fill="#999999" stroke="#666666" points="434.38,-144 337.38,-144 337.38,-112 434.38,-112 434.38,-144"/>
<text text-anchor="start" x="345.38" y="-130.5" font-family="Helvetica,sans-Serif" font-size="10.00">firmware/platforms</text>
<text text-anchor="middle" x="385.88" y="-118.5" font-family="Helvetica,sans-Serif" font-size="10.00">/esp32/mpu6050.c</text>
</a>
</g>
</g>
<!-- Node2 -->
<g id="Node000002" class="node">
<title>Node2</title>
<g id="a_Node000002"><a xlink:href="mpu6050_8h.html" target="_top" xlink:title=" ">
<polygon fill="white" stroke="#666666" points="147.88,-76 83.88,-76 83.88,-56 147.88,-56 147.88,-76"/>
<text text-anchor="middle" x="115.88" y="-62.5" font-family="Helvetica,sans-Serif" font-size="10.00">mpu6050.h</text>
</a>
</g>
</g>
<!-- Node1&#45;&gt;Node2 -->
<g id="edge1_Node000001_Node000002" class="edge">
<title>Node1&#45;&gt;Node2</title>
<g id="a_edge1_Node000001_Node000002"><a xlink:title=" ">
<path fill="none" stroke="#63b8ff" d="M336.98,-116.13C286.33,-104.88 207.93,-87.46 159.37,-76.67"/>
<polygon fill="#63b8ff" stroke="#63b8ff" points="160.3,-73.29 149.78,-74.53 158.78,-80.12 160.3,-73.29"/>
</a>
</g>
</g>
<!-- Node6 -->
<g id="Node000006" class="node">
<title>Node6</title>
<g id="a_Node000006"><a xlink:href="app__config_8h.html" target="_top" xlink:title=" ">
<polygon fill="white" stroke="#666666" points="244.62,-76 173.12,-76 173.12,-56 244.62,-56 244.62,-76"/>
<text text-anchor="middle" x="208.88" y="-62.5" font-family="Helvetica,sans-Serif" font-size="10.00">app_config.h</text>
</a>
</g>
</g>
<!-- Node1&#45;&gt;Node6 -->
<g id="edge5_Node000001_Node000006" class="edge">
<title>Node1&#45;&gt;Node6</title>
<g id="a_edge5_Node000001_Node000006"><a xlink:title=" ">
<path fill="none" stroke="#63b8ff" d="M340.29,-111.55C311.57,-101.81 274.9,-89.38 247.6,-80.13"/>
<polygon fill="#63b8ff" stroke="#63b8ff" points="248.92,-76.88 238.32,-76.98 246.67,-83.51 248.92,-76.88"/>
</a>
</g>
</g>
<!-- Node7 -->
<g id="Node000007" class="node">
<title>Node7</title>
<g id="a_Node000007"><a xlink:href="logger_8h.html" target="_top" xlink:title=" ">
<polygon fill="white" stroke="#666666" points="313.12,-76 262.62,-76 262.62,-56 313.12,-56 313.12,-76"/>
<text text-anchor="middle" x="287.88" y="-62.5" font-family="Helvetica,sans-Serif" font-size="10.00">logger.h</text>
</a>
</g>
</g>
<!-- Node1&#45;&gt;Node7 -->
<g id="edge6_Node000001_Node000007" class="edge">
<title>Node1&#45;&gt;Node7</title>
<g id="a_edge6_Node000001_Node000007"><a xlink:title=" ">
<path fill="none" stroke="#63b8ff" d="M360.64,-111.55C345.89,-102.52 327.36,-91.17 312.69,-82.19"/>
<polygon fill="#63b8ff" stroke="#63b8ff" points="314.89,-79.43 304.53,-77.2 311.23,-85.4 314.89,-79.43"/>
</a>
</g>
</g>
<!-- Node9 -->
<g id="Node000009" class="node">
<title>Node9</title>
<g id="a_Node000009"><a xlink:title=" ">
<polygon fill="#e0e0e0" stroke="#999999" points="376.88,-76 330.88,-76 330.88,-56 376.88,-56 376.88,-76"/>
<text text-anchor="middle" x="353.88" y="-62.5" font-family="Helvetica,sans-Serif" font-size="10.00">math.h</text>
</a>
</g>
</g>
<!-- Node1&#45;&gt;Node9 -->
<g id="edge8_Node000001_Node000009" class="edge">
<title>Node1&#45;&gt;Node9</title>
<g id="a_edge8_Node000001_Node000009"><a xlink:title=" ">
<path fill="none" stroke="#63b8ff" d="M377.63,-111.55C373.56,-103.91 368.6,-94.61 364.27,-86.49"/>
<polygon fill="#63b8ff" stroke="#63b8ff" points="367.4,-84.92 359.6,-77.74 361.22,-88.21 367.4,-84.92"/>
</a>
</g>
</g>
<!-- Node10 -->
<g id="Node000010" class="node">
<title>Node10</title>
<g id="a_Node000010"><a xlink:title=" ">
<polygon fill="#e0e0e0" stroke="#999999" points="443,-76 394.75,-76 394.75,-56 443,-56 443,-76"/>
<text text-anchor="middle" x="418.88" y="-62.5" font-family="Helvetica,sans-Serif" font-size="10.00">string.h</text>
</a>
</g>
</g>
<!-- Node1&#45;&gt;Node10 -->
<g id="edge9_Node000001_Node000010" class="edge">
<title>Node1&#45;&gt;Node10</title>
<g id="a_edge9_Node000001_Node000010"><a xlink:title=" ">
<path fill="none" stroke="#63b8ff" d="M394.37,-111.55C398.57,-103.91 403.69,-94.61 408.16,-86.49"/>
<polygon fill="#63b8ff" stroke="#63b8ff" points="411.22,-88.18 412.97,-77.73 405.09,-84.81 411.22,-88.18"/>
</a>
</g>
</g>
<!-- Node11 -->
<g id="Node000011" class="node">
<title>Node11</title>
<g id="a_Node000011"><a xlink:title=" ">
<polygon fill="#e0e0e0" stroke="#999999" points="568.25,-76 461.5,-76 461.5,-56 568.25,-56 568.25,-76"/>
<text text-anchor="middle" x="514.88" y="-62.5" font-family="Helvetica,sans-Serif" font-size="10.00">freertos/FreeRTOS.h</text>
</a>
</g>
</g>
<!-- Node1&#45;&gt;Node11 -->
<g id="edge10_Node000001_Node000011" class="edge">
<title>Node1&#45;&gt;Node11</title>
<g id="a_edge10_Node000001_Node000011"><a xlink:title=" ">
<path fill="none" stroke="#63b8ff" d="M419.1,-111.55C439.25,-102.17 464.78,-90.3 484.42,-81.17"/>
<polygon fill="#63b8ff" stroke="#63b8ff" points="485.68,-84.44 493.28,-77.05 482.73,-78.09 485.68,-84.44"/>
</a>
</g>
</g>
<!-- Node12 -->
<g id="Node000012" class="node">
<title>Node12</title>
<g id="a_Node000012"><a xlink:title=" ">
<polygon fill="#e0e0e0" stroke="#999999" points="665.38,-76 586.38,-76 586.38,-56 665.38,-56 665.38,-76"/>
<text text-anchor="middle" x="625.88" y="-62.5" font-family="Helvetica,sans-Serif" font-size="10.00">freertos/task.h</text>
</a>
</g>
</g>
<!-- Node1&#45;&gt;Node12 -->
<g id="edge11_Node000001_Node000012" class="edge">
<title>Node1&#45;&gt;Node12</title>
<g id="a_edge11_Node000001_Node000012"><a xlink:title=" ">
<path fill="none" stroke="#63b8ff" d="M434.73,-114.79C476.29,-104.4 535.66,-89.55 577.17,-79.18"/>
<polygon fill="#63b8ff" stroke="#63b8ff" points="577.79,-82.63 586.64,-76.81 576.09,-75.84 577.79,-82.63"/>
</a>
</g>
</g>
<!-- Node13 -->
<g id="Node000013" class="node">
<title>Node13</title>
<g id="a_Node000013"><a xlink:title=" ">
<polygon fill="#e0e0e0" stroke="#999999" points="750.38,-76 683.38,-76 683.38,-56 750.38,-56 750.38,-76"/>
<text text-anchor="middle" x="716.88" y="-62.5" font-family="Helvetica,sans-Serif" font-size="10.00">esp_timer.h</text>
</a>
</g>
</g>
<!-- Node1&#45;&gt;Node13 -->
<g id="edge12_Node000001_Node000013" class="edge">
<title>Node1&#45;&gt;Node13</title>
<g id="a_edge12_Node000001_Node000013"><a xlink:title=" ">
<path fill="none" stroke="#63b8ff" d="M434.81,-118.92C490.06,-109.68 582.93,-93.77 671.87,-76.54"/>
<polygon fill="#63b8ff" stroke="#63b8ff" points="672.34,-80.01 681.49,-74.67 671,-73.14 672.34,-80.01"/>
</a>
</g>
</g>
<!-- Node3 -->
<g id="Node000003" class="node">
<title>Node3</title>
<g id="a_Node000003"><a xlink:title=" ">
<polygon fill="#e0e0e0" stroke="#999999" points="55.75,-20 0,-20 0,0 55.75,0 55.75,-20"/>
<text text-anchor="middle" x="27.88" y="-6.5" font-family="Helvetica,sans-Serif" font-size="10.00">stdbool.h</text>
</a>
</g>
</g>
<!-- Node2&#45;&gt;Node3 -->
<g id="edge2_Node000002_Node000003" class="edge">
<title>Node2&#45;&gt;Node3</title>
<g id="a_edge2_Node000002_Node000003"><a xlink:title=" ">
<path fill="none" stroke="#63b8ff" d="M100.55,-55.59C87.38,-47.51 68.14,-35.71 52.77,-26.27"/>
<polygon fill="#63b8ff" stroke="#63b8ff" points="54.97,-23.52 44.61,-21.27 51.31,-29.48 54.97,-23.52"/>
</a>
</g>
</g>
<!-- Node4 -->
<g id="Node000004" class="node">
<title>Node4</title>
<g id="a_Node000004"><a xlink:title=" ">
<polygon fill="#e0e0e0" stroke="#999999" points="130.12,-20 73.62,-20 73.62,0 130.12,0 130.12,-20"/>
<text text-anchor="middle" x="101.88" y="-6.5" font-family="Helvetica,sans-Serif" font-size="10.00">esp_err.h</text>
</a>
</g>
</g>
<!-- Node2&#45;&gt;Node4 -->
<g id="edge3_Node000002_Node000004" class="edge">
<title>Node2&#45;&gt;Node4</title>
<g id="a_edge3_Node000002_Node000004"><a xlink:title=" ">
<path fill="none" stroke="#63b8ff" d="M113.44,-55.59C111.71,-48.93 109.33,-39.75 107.17,-31.44"/>
<polygon fill="#63b8ff" stroke="#63b8ff" points="110.56,-30.56 104.67,-21.76 103.79,-32.32 110.56,-30.56"/>
</a>
</g>
</g>
<!-- Node5 -->
<g id="Node000005" class="node">
<title>Node5</title>
<g id="a_Node000005"><a xlink:title=" ">
<polygon fill="#e0e0e0" stroke="#999999" points="247.5,-20 148.25,-20 148.25,0 247.5,0 247.5,-20"/>
<text text-anchor="middle" x="197.88" y="-6.5" font-family="Helvetica,sans-Serif" font-size="10.00">driver/i2c_master.h</text>
</a>
</g>
</g>
<!-- Node2&#45;&gt;Node5 -->
<g id="edge4_Node000002_Node000005" class="edge">
<title>Node2&#45;&gt;Node5</title>
<g id="a_edge4_Node000002_Node000005"><a xlink:title=" ">
<path fill="none" stroke="#63b8ff" d="M130.16,-55.59C142.31,-47.59 160.01,-35.93 174.27,-26.54"/>
<polygon fill="#63b8ff" stroke="#63b8ff" points="175.79,-29.73 182.22,-21.31 171.94,-23.89 175.79,-29.73"/>
</a>
</g>
</g>
<!-- Node8 -->
<g id="Node000008" class="node">
<title>Node8</title>
<g id="a_Node000008"><a xlink:title=" ">
<polygon fill="#e0e0e0" stroke="#999999" points="323.88,-20 265.88,-20 265.88,0 323.88,0 323.88,-20"/>
<text text-anchor="middle" x="294.88" y="-6.5" font-family="Helvetica,sans-Serif" font-size="10.00">esp_log.h</text>
</a>
</g>
</g>
<!-- Node7&#45;&gt;Node8 -->
<g id="edge7_Node000007_Node000008" class="edge">
<title>Node7&#45;&gt;Node8</title>
<g id="a_edge7_Node000007_Node000008"><a xlink:title=" ">
<path fill="none" stroke="#63b8ff" d="M289.09,-55.59C289.96,-48.93 291.15,-39.75 292.23,-31.44"/>
<polygon fill="#63b8ff" stroke="#63b8ff" points="295.66,-32.17 293.48,-21.8 288.72,-31.27 295.66,-32.17"/>
</a>
</g>
</g>
</g>
</svg>
