<?xml version="1.0" encoding="UTF-8" standalone="no"?>
<!DOCTYPE svg PUBLIC "-//W3C//DTD SVG 1.1//EN"
 "http://www.w3.org/Graphics/SVG/1.1/DTD/svg11.dtd">
<!-- Generated by graphviz version 12.2.1 (20241206.2353)
 -->
<!-- Title: firmware/services/recognizer.h Pages: 1 -->
<svg width="190pt" height="140pt"
 viewBox="0.00 0.00 190.12 140.00" xmlns="http://www.w3.org/2000/svg" xmlns:xlink="http://www.w3.org/1999/xlink">

<svg id="main" version="1.1" xmlns="http://www.w3.org/2000/svg" xmlns:xlink="http://www.w3.org/1999/xlink" xml:space="preserve">

<style type="text/css"><![CDATA[
.node, .edge {opacity: 0.7;}
.node.selected, .edge.selected {opacity: 1;}
.edge:hover path { stroke: red; }
.edge:hover polygon { stroke: red; fill: red; }
]]></style>
<script type="application/ecmascript" xlink:href="svg.min.js"/>
<svg id="graph" class="graph">
<g id="graph0" class="graph" transform="scale(1 1) rotate(0) translate(4 136)">
<title>firmware/services/recognizer.h</title>
<!-- Node1 -->
<g id="Node000001" class="node">
<title>Node1</title>
<g id="a_Node000001"><a xlink:title=" ">
<polygon fill="#999999" stroke="#666666" points="158.62,-132 9.12,-132 9.12,-112 158.62,-112 158.62,-132"/>
<text text-anchor="middle" x="83.88" y="-118.5" font-family="Helvetica,sans-Serif" font-size="10.00">firmware/services/recognizer.h</text>
</a>
</g>
</g>
<!-- Node2 -->
<g id="Node000002" class="node">
<title>Node2</title>
<g id="a_Node000002"><a xlink:title=" ">
<polygon fill="#e0e0e0" stroke="#999999" points="55.75,-76 0,-76 0,-56 55.75,-56 55.75,-76"/>
<text text-anchor="middle" x="27.88" y="-62.5" font-family="Helvetica,sans-Serif" font-size="10.00">stdbool.h</text>
</a>
</g>
</g>
<!-- Node1&#45;&gt;Node2 -->
<g id="edge1_Node000001_Node000002" class="edge">
<title>Node1&#45;&gt;Node2</title>
<g id="a_edge1_Node000001_Node000002"><a xlink:title=" ">
<path fill="none" stroke="#63b8ff" d="M74.12,-111.59C66.25,-104.01 54.98,-93.13 45.53,-84.02"/>
<polygon fill="#63b8ff" stroke="#63b8ff" points="48.24,-81.77 38.61,-77.35 43.38,-86.81 48.24,-81.77"/>
</a>
</g>
</g>
<!-- Node3 -->
<g id="Node000003" class="node">
<title>Node3</title>
<g id="a_Node000003"><a xlink:title=" ">
<polygon fill="#e0e0e0" stroke="#999999" points="108,-20 59.75,-20 59.75,0 108,0 108,-20"/>
<text text-anchor="middle" x="83.88" y="-6.5" font-family="Helvetica,sans-Serif" font-size="10.00">stdint.h</text>
</a>
</g>
</g>
<!-- Node1&#45;&gt;Node3 -->
<g id="edge2_Node000001_Node000003" class="edge">
<title>Node1&#45;&gt;Node3</title>
<g id="a_edge2_Node000001_Node000003"><a xlink:title=" ">
<path fill="none" stroke="#63b8ff" d="M83.88,-111.62C83.88,-94.01 83.88,-55.59 83.88,-31.65"/>
<polygon fill="#63b8ff" stroke="#63b8ff" points="87.38,-31.87 83.88,-21.87 80.38,-31.87 87.38,-31.87"/>
</a>
</g>
</g>
<!-- Node4 -->
<g id="Node000004" class="node">
<title>Node4</title>
<g id="a_Node000004"><a xlink:href="imu__if_8h.html" target="_top" xlink:title=" ">
<polygon fill="white" stroke="#666666" points="162.12,-76 111.62,-76 111.62,-56 162.12,-56 162.12,-76"/>
<text text-anchor="middle" x="136.88" y="-62.5" font-family="Helvetica,sans-Serif" font-size="10.00">imu_if.h</text>
</a>
</g>
</g>
<!-- Node1&#45;&gt;Node4 -->
<g id="edge3_Node000001_Node000004" class="edge">
<title>Node1&#45;&gt;Node4</title>
<g id="a_edge3_Node000001_Node000004"><a xlink:title=" ">
<path fill="none" stroke="#63b8ff" d="M93.11,-111.59C100.48,-104.08 111.01,-93.35 119.89,-84.3"/>
<polygon fill="#63b8ff" stroke="#63b8ff" points="122.18,-86.97 126.69,-77.38 117.19,-82.06 122.18,-86.97"/>
</a>
</g>
</g>
<!-- Node4&#45;&gt;Node3 -->
<g id="edge4_Node000004_Node000003" class="edge">
<title>Node4&#45;&gt;Node3</title>
<g id="a_edge4_Node000004_Node000003"><a xlink:title=" ">
<path fill="none" stroke="#63b8ff" d="M127.64,-55.59C120.27,-48.08 109.74,-37.35 100.86,-28.3"/>
<polygon fill="#63b8ff" stroke="#63b8ff" points="103.56,-26.06 94.06,-21.38 98.57,-30.97 103.56,-26.06"/>
</a>
</g>
</g>
<!-- Node5 -->
<g id="Node000005" class="node">
<title>Node5</title>
<g id="a_Node000005"><a xlink:title=" ">
<polygon fill="#e0e0e0" stroke="#999999" points="182.12,-20 125.62,-20 125.62,0 182.12,0 182.12,-20"/>
<text text-anchor="middle" x="153.88" y="-6.5" font-family="Helvetica,sans-Serif" font-size="10.00">esp_err.h</text>
</a>
</g>
</g>
<!-- Node4&#45;&gt;Node5 -->
<g id="edge5_Node000004_Node000005" class="edge">
<title>Node4&#45;&gt;Node5</title>
<g id="a_edge5_Node000004_Node000005"><a xlink:title=" ">
<path fill="none" stroke="#63b8ff" d="M139.84,-55.59C141.96,-48.86 144.89,-39.53 147.53,-31.15"/>
<polygon fill="#63b8ff" stroke="#63b8ff" points="150.83,-32.33 150.49,-21.74 144.15,-30.23 150.83,-32.33"/>
</a>
</g>
</g>
</g>
</svg>
</svg>

<style type='text/css'>
<![CDATA[
[data-mouse-over-selected='false'] { opacity: 0.7; }
[data-mouse-over-selected='true']  { opacity: 1.0; }
]]>
</style>
<script type="application/ecmascript"><![CDATA[
document.addEventListener('DOMContentLoaded', (event) => {
  highlightEdges();
  highlightAdjacentNodes();
});
]]></script>
</svg>
