<?xml version="1.0" encoding="UTF-8" standalone="no"?>
<!DOCTYPE svg PUBLIC "-//W3C//DTD SVG 1.1//EN"
 "http://www.w3.org/Graphics/SVG/1.1/DTD/svg11.dtd">
<!-- Generated by graphviz version 12.2.1 (20241206.2353)
 -->
<!-- Title: firmware/services/web_state.c Pages: 1 -->
<svg width="473pt" height="264pt"
 viewBox="0.00 0.00 473.02 264.00" xmlns="http://www.w3.org/2000/svg" xmlns:xlink="http://www.w3.org/1999/xlink">

<svg id="main" version="1.1" xmlns="http://www.w3.org/2000/svg" xmlns:xlink="http://www.w3.org/1999/xlink" xml:space="preserve">

<style type="text/css"><![CDATA[
.node, .edge {opacity: 0.7;}
.node.selected, .edge.selected {opacity: 1;}
.edge:hover path { stroke: red; }
.edge:hover polygon { stroke: red; fill: red; }
]]></style>
<script type="application/ecmascript" xlink:href="svg.min.js"/>
<svg id="graph" class="graph">
<g id="graph0" class="graph" transform="scale(1 1) rotate(0) translate(4 260)">
<title>firmware/services/web_state.c</title>
<!-- Node1 -->
<g id="Node000001" class="node">
<title>Node1</title>
<g id="a_Node000001"><a xlink:title=" ">
<polygon fill="#999999" stroke="#666666" points="261.89,-256 147.64,-256 147.64,-224 261.89,-224 261.89,-256"/>
<text text-anchor="start" x="155.64" y="-242.5" font-family="Helvetica,sans-Serif" font-size="10.00">firmware/services/web</text>
<text text-anchor="middle" x="204.77" y="-230.5" font-family="Helvetica,sans-Serif" font-size="10.00">_state.c</text>
</a>
</g>
</g>
<!-- Node2 -->
<g id="Node000002" class="node">
<title>Node2</title>
<g id="a_Node000002"><a xlink:href="web__state_8h.html" target="_top" xlink:title=" ">
<polygon fill="white" stroke="#666666" points="99.39,-188 30.14,-188 30.14,-168 99.39,-168 99.39,-188"/>
<text text-anchor="middle" x="64.77" y="-174.5" font-family="Helvetica,sans-Serif" font-size="10.00">web_state.h</text>
</a>
</g>
</g>
<!-- Node1&#45;&gt;Node2 -->
<g id="edge1_Node000001_Node000002" class="edge">
<title>Node1&#45;&gt;Node2</title>
<g id="a_edge1_Node000001_Node000002"><a xlink:title=" ">
<path fill="none" stroke="#63b8ff" d="M168.72,-223.55C146.64,-214.09 118.62,-202.08 97.23,-192.91"/>
<polygon fill="#63b8ff" stroke="#63b8ff" points="98.68,-189.73 88.11,-189 95.92,-196.16 98.68,-189.73"/>
</a>
</g>
</g>
<!-- Node8 -->
<g id="Node000008" class="node">
<title>Node8</title>
<g id="a_Node000008"><a xlink:title=" ">
<polygon fill="#e0e0e0" stroke="#999999" points="162.39,-188 117.14,-188 117.14,-168 162.39,-168 162.39,-188"/>
<text text-anchor="middle" x="139.77" y="-174.5" font-family="Helvetica,sans-Serif" font-size="10.00">stdio.h</text>
</a>
</g>
</g>
<!-- Node1&#45;&gt;Node8 -->
<g id="edge11_Node000001_Node000008" class="edge">
<title>Node1&#45;&gt;Node8</title>
<g id="a_edge11_Node000001_Node000008"><a xlink:title=" ">
<path fill="none" stroke="#63b8ff" d="M188.03,-223.55C178.91,-215.13 167.6,-204.69 158.22,-196.04"/>
<polygon fill="#63b8ff" stroke="#63b8ff" points="160.79,-193.65 151.07,-189.43 156.05,-198.79 160.79,-193.65"/>
</a>
</g>
</g>
<!-- Node9 -->
<g id="Node000009" class="node">
<title>Node9</title>
<g id="a_Node000009"><a xlink:title=" ">
<polygon fill="#e0e0e0" stroke="#999999" points="228.89,-188 180.64,-188 180.64,-168 228.89,-168 228.89,-188"/>
<text text-anchor="middle" x="204.77" y="-174.5" font-family="Helvetica,sans-Serif" font-size="10.00">string.h</text>
</a>
</g>
</g>
<!-- Node1&#45;&gt;Node9 -->
<g id="edge12_Node000001_Node000009" class="edge">
<title>Node1&#45;&gt;Node9</title>
<g id="a_edge12_Node000001_Node000009"><a xlink:title=" ">
<path fill="none" stroke="#63b8ff" d="M204.77,-223.55C204.77,-216.34 204.77,-207.66 204.77,-199.88"/>
<polygon fill="#63b8ff" stroke="#63b8ff" points="208.27,-199.92 204.77,-189.92 201.27,-199.92 208.27,-199.92"/>
</a>
</g>
</g>
<!-- Node10 -->
<g id="Node000010" class="node">
<title>Node10</title>
<g id="a_Node000010"><a xlink:title=" ">
<polygon fill="#e0e0e0" stroke="#999999" points="354.14,-188 247.39,-188 247.39,-168 354.14,-168 354.14,-188"/>
<text text-anchor="middle" x="300.77" y="-174.5" font-family="Helvetica,sans-Serif" font-size="10.00">freertos/FreeRTOS.h</text>
</a>
</g>
</g>
<!-- Node1&#45;&gt;Node10 -->
<g id="edge13_Node000001_Node000010" class="edge">
<title>Node1&#45;&gt;Node10</title>
<g id="a_edge13_Node000001_Node000010"><a xlink:title=" ">
<path fill="none" stroke="#63b8ff" d="M229.49,-223.55C243.8,-214.61 261.74,-203.39 276.05,-194.45"/>
<polygon fill="#63b8ff" stroke="#63b8ff" points="277.81,-197.48 284.43,-189.21 274.1,-191.54 277.81,-197.48"/>
</a>
</g>
</g>
<!-- Node11 -->
<g id="Node000011" class="node">
<title>Node11</title>
<g id="a_Node000011"><a xlink:title=" ">
<polygon fill="#e0e0e0" stroke="#999999" points="465.02,-188 372.52,-188 372.52,-168 465.02,-168 465.02,-188"/>
<text text-anchor="middle" x="418.77" y="-174.5" font-family="Helvetica,sans-Serif" font-size="10.00">freertos/semphr.h</text>
</a>
</g>
</g>
<!-- Node1&#45;&gt;Node11 -->
<g id="edge14_Node000001_Node000011" class="edge">
<title>Node1&#45;&gt;Node11</title>
<g id="a_edge14_Node000001_Node000011"><a xlink:title=" ">
<path fill="none" stroke="#63b8ff" d="M259.88,-223.55C295.37,-213.6 340.92,-200.83 374.14,-191.51"/>
<polygon fill="#63b8ff" stroke="#63b8ff" points="374.76,-194.97 383.44,-188.9 372.87,-188.23 374.76,-194.97"/>
</a>
</g>
</g>
<!-- Node3 -->
<g id="Node000003" class="node">
<title>Node3</title>
<g id="a_Node000003"><a xlink:title=" ">
<polygon fill="#e0e0e0" stroke="#999999" points="71.64,-76 15.89,-76 15.89,-56 71.64,-56 71.64,-76"/>
<text text-anchor="middle" x="43.77" y="-62.5" font-family="Helvetica,sans-Serif" font-size="10.00">stdbool.h</text>
</a>
</g>
</g>
<!-- Node2&#45;&gt;Node3 -->
<g id="edge2_Node000002_Node000003" class="edge">
<title>Node2&#45;&gt;Node3</title>
<g id="a_edge2_Node000002_Node000003"><a xlink:title=" ">
<path fill="none" stroke="#63b8ff" d="M61.95,-167.77C59.27,-158.73 55.3,-144.52 52.77,-132 49.79,-117.26 47.49,-100.44 45.96,-87.6"/>
<polygon fill="#63b8ff" stroke="#63b8ff" points="49.46,-87.37 44.86,-77.82 42.5,-88.15 49.46,-87.37"/>
</a>
</g>
</g>
<!-- Node4 -->
<g id="Node000004" class="node">
<title>Node4</title>
<g id="a_Node000004"><a xlink:title=" ">
<polygon fill="#e0e0e0" stroke="#999999" points="117.89,-20 69.64,-20 69.64,0 117.89,0 117.89,-20"/>
<text text-anchor="middle" x="93.77" y="-6.5" font-family="Helvetica,sans-Serif" font-size="10.00">stdint.h</text>
</a>
</g>
</g>
<!-- Node2&#45;&gt;Node4 -->
<g id="edge3_Node000002_Node000004" class="edge">
<title>Node2&#45;&gt;Node4</title>
<g id="a_edge3_Node000002_Node000004"><a xlink:title=" ">
<path fill="none" stroke="#63b8ff" d="M53.84,-167.56C31.08,-146.75 -17.33,-95.6 6.77,-56 18.02,-37.51 39.6,-26.28 58.45,-19.66"/>
<polygon fill="#63b8ff" stroke="#63b8ff" points="59.49,-23 67.98,-16.65 57.39,-16.33 59.49,-23"/>
</a>
</g>
</g>
<!-- Node5 -->
<g id="Node000005" class="node">
<title>Node5</title>
<g id="a_Node000005"><a xlink:href="imu__if_8h.html" target="_top" xlink:title=" ">
<polygon fill="white" stroke="#666666" points="183.02,-76 132.52,-76 132.52,-56 183.02,-56 183.02,-76"/>
<text text-anchor="middle" x="157.77" y="-62.5" font-family="Helvetica,sans-Serif" font-size="10.00">imu_if.h</text>
</a>
</g>
</g>
<!-- Node2&#45;&gt;Node5 -->
<g id="edge4_Node000002_Node000005" class="edge">
<title>Node2&#45;&gt;Node5</title>
<g id="a_edge4_Node000002_Node000005"><a xlink:title=" ">
<path fill="none" stroke="#63b8ff" d="M90.94,-167.58C107.55,-160.31 128.21,-148.65 140.77,-132 150.45,-119.16 154.63,-101.31 156.43,-87.56"/>
<polygon fill="#63b8ff" stroke="#63b8ff" points="159.89,-88.15 157.36,-77.86 152.92,-87.48 159.89,-88.15"/>
</a>
</g>
</g>
<!-- Node7 -->
<g id="Node000007" class="node">
<title>Node7</title>
<g id="a_Node000007"><a xlink:href="recognizer_8h.html" target="_top" xlink:title=" ">
<polygon fill="white" stroke="#666666" points="131.39,-132 62.14,-132 62.14,-112 131.39,-112 131.39,-132"/>
<text text-anchor="middle" x="96.77" y="-118.5" font-family="Helvetica,sans-Serif" font-size="10.00">recognizer.h</text>
</a>
</g>
</g>
<!-- Node2&#45;&gt;Node7 -->
<g id="edge7_Node000002_Node000007" class="edge">
<title>Node2&#45;&gt;Node7</title>
<g id="a_edge7_Node000002_Node000007"><a xlink:title=" ">
<path fill="none" stroke="#63b8ff" d="M70.34,-167.59C74.52,-160.55 80.37,-150.67 85.51,-142"/>
<polygon fill="#63b8ff" stroke="#63b8ff" points="88.4,-143.99 90.49,-133.6 82.38,-140.42 88.4,-143.99"/>
</a>
</g>
</g>
<!-- Node5&#45;&gt;Node4 -->
<g id="edge5_Node000005_Node000004" class="edge">
<title>Node5&#45;&gt;Node4</title>
<g id="a_edge5_Node000005_Node000004"><a xlink:title=" ">
<path fill="none" stroke="#63b8ff" d="M146.62,-55.59C137.44,-47.85 124.21,-36.69 113.29,-27.47"/>
<polygon fill="#63b8ff" stroke="#63b8ff" points="115.85,-25.05 105.95,-21.27 111.33,-30.4 115.85,-25.05"/>
</a>
</g>
</g>
<!-- Node6 -->
<g id="Node000006" class="node">
<title>Node6</title>
<g id="a_Node000006"><a xlink:title=" ">
<polygon fill="#e0e0e0" stroke="#999999" points="192.02,-20 135.52,-20 135.52,0 192.02,0 192.02,-20"/>
<text text-anchor="middle" x="163.77" y="-6.5" font-family="Helvetica,sans-Serif" font-size="10.00">esp_err.h</text>
</a>
</g>
</g>
<!-- Node5&#45;&gt;Node6 -->
<g id="edge6_Node000005_Node000006" class="edge">
<title>Node5&#45;&gt;Node6</title>
<g id="a_edge6_Node000005_Node000006"><a xlink:title=" ">
<path fill="none" stroke="#63b8ff" d="M158.81,-55.59C159.55,-49.01 160.55,-39.96 161.47,-31.73"/>
<polygon fill="#63b8ff" stroke="#63b8ff" points="164.94,-32.13 162.57,-21.8 157.99,-31.35 164.94,-32.13"/>
</a>
</g>
</g>
<!-- Node7&#45;&gt;Node3 -->
<g id="edge8_Node000007_Node000003" class="edge">
<title>Node7&#45;&gt;Node3</title>
<g id="a_edge8_Node000007_Node000003"><a xlink:title=" ">
<path fill="none" stroke="#63b8ff" d="M87.54,-111.59C80.17,-104.08 69.64,-93.35 60.75,-84.3"/>
<polygon fill="#63b8ff" stroke="#63b8ff" points="63.46,-82.06 53.96,-77.38 58.46,-86.97 63.46,-82.06"/>
</a>
</g>
</g>
<!-- Node7&#45;&gt;Node4 -->
<g id="edge9_Node000007_Node000004" class="edge">
<title>Node7&#45;&gt;Node4</title>
<g id="a_edge9_Node000007_Node000004"><a xlink:title=" ">
<path fill="none" stroke="#63b8ff" d="M96.51,-111.62C96.03,-94.01 94.98,-55.59 94.33,-31.65"/>
<polygon fill="#63b8ff" stroke="#63b8ff" points="97.84,-31.77 94.07,-21.87 90.84,-31.96 97.84,-31.77"/>
</a>
</g>
</g>
<!-- Node7&#45;&gt;Node5 -->
<g id="edge10_Node000007_Node000005" class="edge">
<title>Node7&#45;&gt;Node5</title>
<g id="a_edge10_Node000007_Node000005"><a xlink:title=" ">
<path fill="none" stroke="#63b8ff" d="M107.39,-111.59C116.05,-103.93 128.5,-92.91 138.85,-83.75"/>
<polygon fill="#63b8ff" stroke="#63b8ff" points="140.96,-86.55 146.13,-77.3 136.32,-81.31 140.96,-86.55"/>
</a>
</g>
</g>
</g>
</svg>
</svg>

<style type='text/css'>
<![CDATA[
[data-mouse-over-selected='false'] { opacity: 0.7; }
[data-mouse-over-selected='true']  { opacity: 1.0; }
]]>
</style>
<script type="application/ecmascript"><![CDATA[
document.addEventListener('DOMContentLoaded', (event) => {
  highlightEdges();
  highlightAdjacentNodes();
});
]]></script>
</svg>
