<?xml version="1.0" encoding="UTF-8" standalone="no"?>
<!DOCTYPE svg PUBLIC "-//W3C//DTD SVG 1.1//EN"
 "http://www.w3.org/Graphics/SVG/1.1/DTD/svg11.dtd">
<!-- Generated by graphviz version 12.2.1 (20241206.2353)
 -->
<!-- Title: main/main.c Pages: 1 -->
<svg width="604pt" height="84pt"
 viewBox="0.00 0.00 604.38 84.00" xmlns="http://www.w3.org/2000/svg" xmlns:xlink="http://www.w3.org/1999/xlink">
<g id="graph0" class="graph" transform="scale(1 1) rotate(0) translate(4 80)">
<title>main/main.c</title>
<!-- Node1 -->
<g id="Node000001" class="node">
<title>Node1</title>
<g id="a_Node000001"><a xlink:title=" ">
<polygon fill="#999999" stroke="#666666" points="301.5,-76 232.25,-76 232.25,-56 301.5,-56 301.5,-76"/>
<text text-anchor="middle" x="266.88" y="-62.5" font-family="Helvetica,sans-Serif" font-size="10.00">main/main.c</text>
</a>
</g>
</g>
<!-- Node2 -->
<g id="Node000002" class="node">
<title>Node2</title>
<g id="a_Node000002"><a xlink:title=" ">
<polygon fill="#e0e0e0" stroke="#999999" points="55.75,-20 0,-20 0,0 55.75,0 55.75,-20"/>
<text text-anchor="middle" x="27.88" y="-6.5" font-family="Helvetica,sans-Serif" font-size="10.00">stdbool.h</text>
</a>
</g>
</g>
<!-- Node1&#45;&gt;Node2 -->
<g id="edge1_Node000001_Node000002" class="edge">
<title>Node1&#45;&gt;Node2</title>
<g id="a_edge1_Node000001_Node000002"><a xlink:title=" ">
<path fill="none" stroke="#63b8ff" d="M231.8,-57.4C193.67,-49.1 130.68,-35.24 67.17,-20.5"/>
<polygon fill="#63b8ff" stroke="#63b8ff" points="68.15,-17.14 57.62,-18.28 66.56,-23.95 68.15,-17.14"/>
</a>
</g>
</g>
<!-- Node3 -->
<g id="Node000003" class="node">
<title>Node3</title>
<g id="a_Node000003"><a xlink:href="app__config_8h.html" target="_top" xlink:title=" ">
<polygon fill="white" stroke="#666666" points="145.62,-20 74.12,-20 74.12,0 145.62,0 145.62,-20"/>
<text text-anchor="middle" x="109.88" y="-6.5" font-family="Helvetica,sans-Serif" font-size="10.00">app_config.h</text>
</a>
</g>
</g>
<!-- Node1&#45;&gt;Node3 -->
<g id="edge2_Node000001_Node000003" class="edge">
<title>Node1&#45;&gt;Node3</title>
<g id="a_edge2_Node000001_Node000003"><a xlink:title=" ">
<path fill="none" stroke="#63b8ff" d="M239.53,-55.59C214.24,-46.9 176.42,-33.89 148.14,-24.16"/>
<polygon fill="#63b8ff" stroke="#63b8ff" points="149.46,-20.91 138.87,-20.97 147.18,-27.53 149.46,-20.91"/>
</a>
</g>
</g>
<!-- Node4 -->
<g id="Node000004" class="node">
<title>Node4</title>
<g id="a_Node000004"><a xlink:title=" ">
<polygon fill="#e0e0e0" stroke="#999999" points="220.12,-20 163.62,-20 163.62,0 220.12,0 220.12,-20"/>
<text text-anchor="middle" x="191.88" y="-6.5" font-family="Helvetica,sans-Serif" font-size="10.00">esp_err.h</text>
</a>
</g>
</g>
<!-- Node1&#45;&gt;Node4 -->
<g id="edge3_Node000001_Node000004" class="edge">
<title>Node1&#45;&gt;Node4</title>
<g id="a_edge3_Node000001_Node000004"><a xlink:title=" ">
<path fill="none" stroke="#63b8ff" d="M253.81,-55.59C242.91,-47.74 227.12,-36.38 214.22,-27.09"/>
<polygon fill="#63b8ff" stroke="#63b8ff" points="216.43,-24.37 206.27,-21.36 212.34,-30.05 216.43,-24.37"/>
</a>
</g>
</g>
<!-- Node5 -->
<g id="Node000005" class="node">
<title>Node5</title>
<g id="a_Node000005"><a xlink:title=" ">
<polygon fill="#e0e0e0" stroke="#999999" points="295.88,-20 237.88,-20 237.88,0 295.88,0 295.88,-20"/>
<text text-anchor="middle" x="266.88" y="-6.5" font-family="Helvetica,sans-Serif" font-size="10.00">esp_log.h</text>
</a>
</g>
</g>
<!-- Node1&#45;&gt;Node5 -->
<g id="edge4_Node000001_Node000005" class="edge">
<title>Node1&#45;&gt;Node5</title>
<g id="a_edge4_Node000001_Node000005"><a xlink:title=" ">
<path fill="none" stroke="#63b8ff" d="M266.88,-55.59C266.88,-49.01 266.88,-39.96 266.88,-31.73"/>
<polygon fill="#63b8ff" stroke="#63b8ff" points="270.38,-31.81 266.88,-21.81 263.38,-31.81 270.38,-31.81"/>
</a>
</g>
</g>
<!-- Node6 -->
<g id="Node000006" class="node">
<title>Node6</title>
<g id="a_Node000006"><a xlink:title=" ">
<polygon fill="#e0e0e0" stroke="#999999" points="420.25,-20 313.5,-20 313.5,0 420.25,0 420.25,-20"/>
<text text-anchor="middle" x="366.88" y="-6.5" font-family="Helvetica,sans-Serif" font-size="10.00">freertos/FreeRTOS.h</text>
</a>
</g>
</g>
<!-- Node1&#45;&gt;Node6 -->
<g id="edge5_Node000001_Node000006" class="edge">
<title>Node1&#45;&gt;Node6</title>
<g id="a_edge5_Node000001_Node000006"><a xlink:title=" ">
<path fill="none" stroke="#63b8ff" d="M284.29,-55.59C299.54,-47.36 321.95,-35.26 339.58,-25.74"/>
<polygon fill="#63b8ff" stroke="#63b8ff" points="340.85,-29.03 347.99,-21.2 337.53,-22.87 340.85,-29.03"/>
</a>
</g>
</g>
<!-- Node7 -->
<g id="Node000007" class="node">
<title>Node7</title>
<g id="a_Node000007"><a xlink:title=" ">
<polygon fill="#e0e0e0" stroke="#999999" points="517.38,-20 438.38,-20 438.38,0 517.38,0 517.38,-20"/>
<text text-anchor="middle" x="477.88" y="-6.5" font-family="Helvetica,sans-Serif" font-size="10.00">freertos/task.h</text>
</a>
</g>
</g>
<!-- Node1&#45;&gt;Node7 -->
<g id="edge6_Node000001_Node000007" class="edge">
<title>Node1&#45;&gt;Node7</title>
<g id="a_edge6_Node000001_Node000007"><a xlink:title=" ">
<path fill="none" stroke="#63b8ff" d="M301.72,-56.08C336.66,-47.14 390.74,-33.3 429.77,-23.31"/>
<polygon fill="#63b8ff" stroke="#63b8ff" points="430.56,-26.72 439.38,-20.85 428.83,-19.94 430.56,-26.72"/>
</a>
</g>
</g>
<!-- Node8 -->
<g id="Node000008" class="node">
<title>Node8</title>
<g id="a_Node000008"><a xlink:title=" ">
<polygon fill="#e0e0e0" stroke="#999999" points="596.38,-20 535.38,-20 535.38,0 596.38,0 596.38,-20"/>
<text text-anchor="middle" x="565.88" y="-6.5" font-family="Helvetica,sans-Serif" font-size="10.00">led_strip.h</text>
</a>
</g>
</g>
<!-- Node1&#45;&gt;Node8 -->
<g id="edge7_Node000001_Node000008" class="edge">
<title>Node1&#45;&gt;Node8</title>
<g id="a_edge7_Node000001_Node000008"><a xlink:title=" ">
<path fill="none" stroke="#63b8ff" d="M301.89,-59.57C349.84,-52 438.84,-37.46 524.07,-20.48"/>
<polygon fill="#63b8ff" stroke="#63b8ff" points="524.65,-23.93 533.77,-18.53 523.28,-17.07 524.65,-23.93"/>
</a>
</g>
</g>
</g>
</svg>
